<mxfile host="app.diagrams.net" modified="2023-03-04T03:37:23.206Z" agent="5.0 (X11; Linux x86_64) AppleWebKit/537.36 (KHTML, like Gecko) Chrome/110.0.0.0 Safari/537.36" etag="C4k7yDBbYyg4up2DADgn" version="21.0.2" type="github">
  <diagram name="第 1 页" id="lIP4qVzBCyqWuRjXmA0O">
    <mxGraphModel dx="2261" dy="834" grid="1" gridSize="10" guides="1" tooltips="1" connect="1" arrows="1" fold="1" page="1" pageScale="1" pageWidth="827" pageHeight="1169" math="0" shadow="0">
      <root>
        <mxCell id="0" />
        <mxCell id="1" parent="0" />
        <mxCell id="dvXgpNjGOUYn0zXqrAjh-23" value="" style="rounded=0;whiteSpace=wrap;html=1;" vertex="1" parent="1">
          <mxGeometry x="770" y="250" width="530" height="160" as="geometry" />
        </mxCell>
        <mxCell id="dvXgpNjGOUYn0zXqrAjh-1" value="" style="rounded=0;whiteSpace=wrap;html=1;" vertex="1" parent="1">
          <mxGeometry x="-176" y="250" width="566" height="160" as="geometry" />
        </mxCell>
        <mxCell id="dvXgpNjGOUYn0zXqrAjh-5" value="NV12" style="edgeStyle=orthogonalEdgeStyle;rounded=0;orthogonalLoop=1;jettySize=auto;html=1;entryX=0;entryY=0.5;entryDx=0;entryDy=0;" edge="1" parent="1" source="dvXgpNjGOUYn0zXqrAjh-2" target="dvXgpNjGOUYn0zXqrAjh-3">
          <mxGeometry relative="1" as="geometry" />
        </mxCell>
        <mxCell id="dvXgpNjGOUYn0zXqrAjh-2" value="uridecodebin" style="rounded=1;whiteSpace=wrap;html=1;" vertex="1" parent="1">
          <mxGeometry x="-148" y="315" width="120" height="60" as="geometry" />
        </mxCell>
        <mxCell id="dvXgpNjGOUYn0zXqrAjh-6" value="RGB" style="edgeStyle=orthogonalEdgeStyle;rounded=0;orthogonalLoop=1;jettySize=auto;html=1;" edge="1" parent="1" source="dvXgpNjGOUYn0zXqrAjh-3" target="dvXgpNjGOUYn0zXqrAjh-4">
          <mxGeometry relative="1" as="geometry" />
        </mxCell>
        <mxCell id="dvXgpNjGOUYn0zXqrAjh-3" value="qtivtansform" style="rounded=1;whiteSpace=wrap;html=1;" vertex="1" parent="1">
          <mxGeometry x="42" y="315" width="120" height="60" as="geometry" />
        </mxCell>
        <mxCell id="dvXgpNjGOUYn0zXqrAjh-18" value="produce" style="edgeStyle=orthogonalEdgeStyle;rounded=0;orthogonalLoop=1;jettySize=auto;html=1;" edge="1" parent="1" source="dvXgpNjGOUYn0zXqrAjh-4" target="dvXgpNjGOUYn0zXqrAjh-11">
          <mxGeometry relative="1" as="geometry" />
        </mxCell>
        <mxCell id="dvXgpNjGOUYn0zXqrAjh-4" value="appsink" style="rounded=1;whiteSpace=wrap;html=1;" vertex="1" parent="1">
          <mxGeometry x="242" y="315" width="120" height="60" as="geometry" />
        </mxCell>
        <mxCell id="dvXgpNjGOUYn0zXqrAjh-9" value="VideoPipelineConfig" style="rounded=0;whiteSpace=wrap;html=1;" vertex="1" parent="1">
          <mxGeometry x="-176" y="250" width="166" height="40" as="geometry" />
        </mxCell>
        <mxCell id="dvXgpNjGOUYn0zXqrAjh-10" value="VideoPipeline" style="text;html=1;strokeColor=none;fillColor=none;align=center;verticalAlign=middle;whiteSpace=wrap;rounded=0;fontStyle=1;fontSize=20;" vertex="1" parent="1">
          <mxGeometry x="22" y="250" width="170" height="30" as="geometry" />
        </mxCell>
        <mxCell id="dvXgpNjGOUYn0zXqrAjh-11" value="cv::Mat" style="whiteSpace=wrap;html=1;aspect=fixed;" vertex="1" parent="1">
          <mxGeometry x="480" y="324" width="42" height="42" as="geometry" />
        </mxCell>
        <mxCell id="dvXgpNjGOUYn0zXqrAjh-17" value="SaftyQueue&lt;br&gt;capcity=25" style="text;html=1;strokeColor=none;fillColor=none;align=center;verticalAlign=middle;whiteSpace=wrap;rounded=0;fontStyle=1;fontColor=#FF0000;" vertex="1" parent="1">
          <mxGeometry x="550" y="280" width="60" height="30" as="geometry" />
        </mxCell>
        <mxCell id="dvXgpNjGOUYn0zXqrAjh-19" value="cv::Mat" style="whiteSpace=wrap;html=1;aspect=fixed;" vertex="1" parent="1">
          <mxGeometry x="522" y="324" width="42" height="42" as="geometry" />
        </mxCell>
        <mxCell id="dvXgpNjGOUYn0zXqrAjh-20" value="cv::Mat" style="whiteSpace=wrap;html=1;aspect=fixed;" vertex="1" parent="1">
          <mxGeometry x="564" y="324" width="42" height="42" as="geometry" />
        </mxCell>
        <mxCell id="dvXgpNjGOUYn0zXqrAjh-21" value="cv::Mat" style="whiteSpace=wrap;html=1;aspect=fixed;" vertex="1" parent="1">
          <mxGeometry x="606" y="324" width="42" height="42" as="geometry" />
        </mxCell>
        <mxCell id="dvXgpNjGOUYn0zXqrAjh-22" value="cv::Mat" style="whiteSpace=wrap;html=1;aspect=fixed;" vertex="1" parent="1">
          <mxGeometry x="648" y="324" width="42" height="42" as="geometry" />
        </mxCell>
        <mxCell id="dvXgpNjGOUYn0zXqrAjh-24" value="VideoAnalyzer" style="text;html=1;strokeColor=none;fillColor=none;align=center;verticalAlign=middle;whiteSpace=wrap;rounded=0;fontStyle=1;fontSize=20;" vertex="1" parent="1">
          <mxGeometry x="950" y="255" width="170" height="30" as="geometry" />
        </mxCell>
        <mxCell id="dvXgpNjGOUYn0zXqrAjh-29" value="consume" style="edgeStyle=orthogonalEdgeStyle;rounded=0;orthogonalLoop=1;jettySize=auto;html=1;entryX=1;entryY=0.5;entryDx=0;entryDy=0;" edge="1" parent="1" source="dvXgpNjGOUYn0zXqrAjh-25" target="dvXgpNjGOUYn0zXqrAjh-22">
          <mxGeometry relative="1" as="geometry" />
        </mxCell>
        <mxCell id="dvXgpNjGOUYn0zXqrAjh-25" value="" style="rounded=1;whiteSpace=wrap;html=1;" vertex="1" parent="1">
          <mxGeometry x="810" y="306" width="460" height="77" as="geometry" />
        </mxCell>
        <mxCell id="dvXgpNjGOUYn0zXqrAjh-33" style="edgeStyle=orthogonalEdgeStyle;rounded=0;orthogonalLoop=1;jettySize=auto;html=1;" edge="1" parent="1" source="dvXgpNjGOUYn0zXqrAjh-30" target="dvXgpNjGOUYn0zXqrAjh-32">
          <mxGeometry relative="1" as="geometry" />
        </mxCell>
        <mxCell id="dvXgpNjGOUYn0zXqrAjh-30" value="ObjectDetection" style="rounded=1;whiteSpace=wrap;html=1;" vertex="1" parent="1">
          <mxGeometry x="840" y="327.5" width="110" height="35" as="geometry" />
        </mxCell>
        <mxCell id="dvXgpNjGOUYn0zXqrAjh-32" value="json::Value" style="rounded=1;whiteSpace=wrap;html=1;" vertex="1" parent="1">
          <mxGeometry x="998" y="327.5" width="110" height="35" as="geometry" />
        </mxCell>
        <mxCell id="dvXgpNjGOUYn0zXqrAjh-34" value="mosquitto" style="rounded=1;whiteSpace=wrap;html=1;" vertex="1" parent="1">
          <mxGeometry x="1131" y="327.5" width="110" height="35" as="geometry" />
        </mxCell>
      </root>
    </mxGraphModel>
  </diagram>
</mxfile>
